<?xml version="1.0" encoding="UTF-8" standalone="no"?><!DOCTYPE svg PUBLIC "-//W3C//DTD SVG 1.1//EN" "http://www.w3.org/Graphics/SVG/1.1/DTD/svg11.dtd"><svg width="100%" height="100%" viewBox="0 0 60 500" version="1.1" xmlns="http://www.w3.org/2000/svg" xmlns:xlink="http://www.w3.org/1999/xlink" xml:space="preserve" style="fill-rule:evenodd;clip-rule:evenodd;stroke-linejoin:round;stroke-miterlimit:1.41421;"><path d="M60,500l-60,0l0,-500l60,0l0,500Zm-58,-2l56,0l0,-496l-56,0l0,496Z" style="fill:#dda800;"/><g><path d="M45.5,12.5l-15.5,16.5l-15.5,-16.5l15.5,-16.5l15.5,16.5Zm-28.256,0l12.756,13.579l12.756,-13.579l-12.756,-13.579l-12.756,13.579Z" style="fill:#dda800;"/><path d="M45.5,12.5l-15.5,16.5l-15.5,-16.5l15.5,-16.5l15.5,16.5Zm-28.256,0l12.756,13.579l12.756,-13.579l-12.756,-13.579l-12.756,13.579Z" style="fill:#dda800;"/><path d="M38.5,12.5l-8.5,16.5l-8.5,-16.5l8.5,-16.5l8.5,16.5Zm-14.75,0l6.25,12.133l6.25,-12.133l-6.25,-12.133l-6.25,12.133Z" style="fill:#dda800;"/><path d="M55.5,12.5l-25.5,16.5l-25.5,-16.5l25.5,-16.5l25.5,16.5Zm-47.318,0l21.818,14.118l21.818,-14.118l-21.818,-14.118l-21.818,14.118Z" style="fill:#dda800;"/><path d="M63.5,12.5l-33.5,16.5l-33.5,-16.5l33.5,-16.5l33.5,16.5Zm-62.474,0l28.974,14.271l28.974,-14.271l-28.974,-14.271l-28.974,14.271Z" style="fill:#dda800;"/></g><g><path d="M12,32.5l-15.5,16.5l-15.5,-16.5l15.5,-16.5l15.5,16.5Zm-28.256,0l12.756,13.579l12.756,-13.579l-12.756,-13.579l-12.756,13.579Z" style="fill:#dda800;"/><path d="M12,32.5l-15.5,16.5l-15.5,-16.5l15.5,-16.5l15.5,16.5Zm-28.256,0l12.756,13.579l12.756,-13.579l-12.756,-13.579l-12.756,13.579Z" style="fill:#dda800;"/><path d="M5,32.5l-8.5,16.5l-8.5,-16.5l8.5,-16.5l8.5,16.5Zm-14.75,0l6.25,12.133l6.25,-12.133l-6.25,-12.133l-6.25,12.133Z" style="fill:#dda800;"/><path d="M22,32.5l-25.5,16.5l-25.5,-16.5l25.5,-16.5l25.5,16.5Zm-47.318,0l21.818,14.118l21.818,-14.118l-21.818,-14.118l-21.818,14.118Z" style="fill:#dda800;"/><path d="M30,32.5l-33.5,16.5l-33.5,-16.5l33.5,-16.5l33.5,16.5Zm-62.474,0l28.974,14.271l28.974,-14.271l-28.974,-14.271l-28.974,14.271Z" style="fill:#dda800;"/></g><g><path d="M45.5,52.5l-15.5,16.5l-15.5,-16.5l15.5,-16.5l15.5,16.5Zm-28.256,0l12.756,13.579l12.756,-13.579l-12.756,-13.579l-12.756,13.579Z" style="fill:#dda800;"/><path d="M45.5,52.5l-15.5,16.5l-15.5,-16.5l15.5,-16.5l15.5,16.5Zm-28.256,0l12.756,13.579l12.756,-13.579l-12.756,-13.579l-12.756,13.579Z" style="fill:#dda800;"/><path d="M38.5,52.5l-8.5,16.5l-8.5,-16.5l8.5,-16.5l8.5,16.5Zm-14.75,0l6.25,12.133l6.25,-12.133l-6.25,-12.133l-6.25,12.133Z" style="fill:#dda800;"/><path d="M55.5,52.5l-25.5,16.5l-25.5,-16.5l25.5,-16.5l25.5,16.5Zm-47.318,0l21.818,14.118l21.818,-14.118l-21.818,-14.118l-21.818,14.118Z" style="fill:#dda800;"/><path d="M63.5,52.5l-33.5,16.5l-33.5,-16.5l33.5,-16.5l33.5,16.5Zm-62.474,0l28.974,14.271l28.974,-14.271l-28.974,-14.271l-28.974,14.271Z" style="fill:#dda800;"/></g><g><path d="M12,72.5l-15.5,16.5l-15.5,-16.5l15.5,-16.5l15.5,16.5Zm-28.256,0l12.756,13.579l12.756,-13.579l-12.756,-13.579l-12.756,13.579Z" style="fill:#dda800;"/><path d="M12,72.5l-15.5,16.5l-15.5,-16.5l15.5,-16.5l15.5,16.5Zm-28.256,0l12.756,13.579l12.756,-13.579l-12.756,-13.579l-12.756,13.579Z" style="fill:#dda800;"/><path d="M5,72.5l-8.5,16.5l-8.5,-16.5l8.5,-16.5l8.5,16.5Zm-14.75,0l6.25,12.133l6.25,-12.133l-6.25,-12.133l-6.25,12.133Z" style="fill:#dda800;"/><path d="M22,72.5l-25.5,16.5l-25.5,-16.5l25.5,-16.5l25.5,16.5Zm-47.318,0l21.818,14.118l21.818,-14.118l-21.818,-14.118l-21.818,14.118Z" style="fill:#dda800;"/><path d="M30,72.5l-33.5,16.5l-33.5,-16.5l33.5,-16.5l33.5,16.5Zm-62.474,0l28.974,14.271l28.974,-14.271l-28.974,-14.271l-28.974,14.271Z" style="fill:#dda800;"/></g><g><path d="M45.5,92.5l-15.5,16.5l-15.5,-16.5l15.5,-16.5l15.5,16.5Zm-28.256,0l12.756,13.579l12.756,-13.579l-12.756,-13.579l-12.756,13.579Z" style="fill:#dda800;"/><path d="M45.5,92.5l-15.5,16.5l-15.5,-16.5l15.5,-16.5l15.5,16.5Zm-28.256,0l12.756,13.579l12.756,-13.579l-12.756,-13.579l-12.756,13.579Z" style="fill:#dda800;"/><path d="M38.5,92.5l-8.5,16.5l-8.5,-16.5l8.5,-16.5l8.5,16.5Zm-14.75,0l6.25,12.133l6.25,-12.133l-6.25,-12.133l-6.25,12.133Z" style="fill:#dda800;"/><path d="M55.5,92.5l-25.5,16.5l-25.5,-16.5l25.5,-16.5l25.5,16.5Zm-47.318,0l21.818,14.118l21.818,-14.118l-21.818,-14.118l-21.818,14.118Z" style="fill:#dda800;"/><path d="M63.5,92.5l-33.5,16.5l-33.5,-16.5l33.5,-16.5l33.5,16.5Zm-62.474,0l28.974,14.271l28.974,-14.271l-28.974,-14.271l-28.974,14.271Z" style="fill:#dda800;"/></g><g><path d="M12,112.5l-15.5,16.5l-15.5,-16.5l15.5,-16.5l15.5,16.5Zm-28.256,0l12.756,13.579l12.756,-13.579l-12.756,-13.579l-12.756,13.579Z" style="fill:#dda800;"/><path d="M12,112.5l-15.5,16.5l-15.5,-16.5l15.5,-16.5l15.5,16.5Zm-28.256,0l12.756,13.579l12.756,-13.579l-12.756,-13.579l-12.756,13.579Z" style="fill:#dda800;"/><path d="M5,112.5l-8.5,16.5l-8.5,-16.5l8.5,-16.5l8.5,16.5Zm-14.75,0l6.25,12.133l6.25,-12.133l-6.25,-12.133l-6.25,12.133Z" style="fill:#dda800;"/><path d="M22,112.5l-25.5,16.5l-25.5,-16.5l25.5,-16.5l25.5,16.5Zm-47.318,0l21.818,14.118l21.818,-14.118l-21.818,-14.118l-21.818,14.118Z" style="fill:#dda800;"/><path d="M30,112.5l-33.5,16.5l-33.5,-16.5l33.5,-16.5l33.5,16.5Zm-62.474,0l28.974,14.271l28.974,-14.271l-28.974,-14.271l-28.974,14.271Z" style="fill:#dda800;"/></g><g><path d="M45.5,132.5l-15.5,16.5l-15.5,-16.5l15.5,-16.5l15.5,16.5Zm-28.256,0l12.756,13.579l12.756,-13.579l-12.756,-13.579l-12.756,13.579Z" style="fill:#dda800;"/><path d="M45.5,132.5l-15.5,16.5l-15.5,-16.5l15.5,-16.5l15.5,16.5Zm-28.256,0l12.756,13.579l12.756,-13.579l-12.756,-13.579l-12.756,13.579Z" style="fill:#dda800;"/><path d="M38.5,132.5l-8.5,16.5l-8.5,-16.5l8.5,-16.5l8.5,16.5Zm-14.75,0l6.25,12.133l6.25,-12.133l-6.25,-12.133l-6.25,12.133Z" style="fill:#dda800;"/><path d="M55.5,132.5l-25.5,16.5l-25.5,-16.5l25.5,-16.5l25.5,16.5Zm-47.318,0l21.818,14.118l21.818,-14.118l-21.818,-14.118l-21.818,14.118Z" style="fill:#dda800;"/><path d="M63.5,132.5l-33.5,16.5l-33.5,-16.5l33.5,-16.5l33.5,16.5Zm-62.474,0l28.974,14.271l28.974,-14.271l-28.974,-14.271l-28.974,14.271Z" style="fill:#dda800;"/></g><g><path d="M12,152.5l-15.5,16.5l-15.5,-16.5l15.5,-16.5l15.5,16.5Zm-28.256,0l12.756,13.579l12.756,-13.579l-12.756,-13.579l-12.756,13.579Z" style="fill:#dda800;"/><path d="M12,152.5l-15.5,16.5l-15.5,-16.5l15.5,-16.5l15.5,16.5Zm-28.256,0l12.756,13.579l12.756,-13.579l-12.756,-13.579l-12.756,13.579Z" style="fill:#dda800;"/><path d="M5,152.5l-8.5,16.5l-8.5,-16.5l8.5,-16.5l8.5,16.5Zm-14.75,0l6.25,12.133l6.25,-12.133l-6.25,-12.133l-6.25,12.133Z" style="fill:#dda800;"/><path d="M22,152.5l-25.5,16.5l-25.5,-16.5l25.5,-16.5l25.5,16.5Zm-47.318,0l21.818,14.118l21.818,-14.118l-21.818,-14.118l-21.818,14.118Z" style="fill:#dda800;"/><path d="M30,152.5l-33.5,16.5l-33.5,-16.5l33.5,-16.5l33.5,16.5Zm-62.474,0l28.974,14.271l28.974,-14.271l-28.974,-14.271l-28.974,14.271Z" style="fill:#dda800;"/></g><g><path d="M45.5,172.5l-15.5,16.5l-15.5,-16.5l15.5,-16.5l15.5,16.5Zm-28.256,0l12.756,13.579l12.756,-13.579l-12.756,-13.579l-12.756,13.579Z" style="fill:#dda800;"/><path d="M45.5,172.5l-15.5,16.5l-15.5,-16.5l15.5,-16.5l15.5,16.5Zm-28.256,0l12.756,13.579l12.756,-13.579l-12.756,-13.579l-12.756,13.579Z" style="fill:#dda800;"/><path d="M38.5,172.5l-8.5,16.5l-8.5,-16.5l8.5,-16.5l8.5,16.5Zm-14.75,0l6.25,12.133l6.25,-12.133l-6.25,-12.133l-6.25,12.133Z" style="fill:#dda800;"/><path d="M55.5,172.5l-25.5,16.5l-25.5,-16.5l25.5,-16.5l25.5,16.5Zm-47.318,0l21.818,14.118l21.818,-14.118l-21.818,-14.118l-21.818,14.118Z" style="fill:#dda800;"/><path d="M63.5,172.5l-33.5,16.5l-33.5,-16.5l33.5,-16.5l33.5,16.5Zm-62.474,0l28.974,14.271l28.974,-14.271l-28.974,-14.271l-28.974,14.271Z" style="fill:#dda800;"/></g><g><path d="M12,192.5l-15.5,16.5l-15.5,-16.5l15.5,-16.5l15.5,16.5Zm-28.256,0l12.756,13.579l12.756,-13.579l-12.756,-13.579l-12.756,13.579Z" style="fill:#dda800;"/><path d="M12,192.5l-15.5,16.5l-15.5,-16.5l15.5,-16.5l15.5,16.5Zm-28.256,0l12.756,13.579l12.756,-13.579l-12.756,-13.579l-12.756,13.579Z" style="fill:#dda800;"/><path d="M5,192.5l-8.5,16.5l-8.5,-16.5l8.5,-16.5l8.5,16.5Zm-14.75,0l6.25,12.133l6.25,-12.133l-6.25,-12.133l-6.25,12.133Z" style="fill:#dda800;"/><path d="M22,192.5l-25.5,16.5l-25.5,-16.5l25.5,-16.5l25.5,16.5Zm-47.318,0l21.818,14.118l21.818,-14.118l-21.818,-14.118l-21.818,14.118Z" style="fill:#dda800;"/><path d="M30,192.5l-33.5,16.5l-33.5,-16.5l33.5,-16.5l33.5,16.5Zm-62.474,0l28.974,14.271l28.974,-14.271l-28.974,-14.271l-28.974,14.271Z" style="fill:#dda800;"/></g><g><path d="M45.5,212.5l-15.5,16.5l-15.5,-16.5l15.5,-16.5l15.5,16.5Zm-28.256,0l12.756,13.579l12.756,-13.579l-12.756,-13.579l-12.756,13.579Z" style="fill:#dda800;"/><path d="M45.5,212.5l-15.5,16.5l-15.5,-16.5l15.5,-16.5l15.5,16.5Zm-28.256,0l12.756,13.579l12.756,-13.579l-12.756,-13.579l-12.756,13.579Z" style="fill:#dda800;"/><path d="M38.5,212.5l-8.5,16.5l-8.5,-16.5l8.5,-16.5l8.5,16.5Zm-14.75,0l6.25,12.133l6.25,-12.133l-6.25,-12.133l-6.25,12.133Z" style="fill:#dda800;"/><path d="M55.5,212.5l-25.5,16.5l-25.5,-16.5l25.5,-16.5l25.5,16.5Zm-47.318,0l21.818,14.118l21.818,-14.118l-21.818,-14.118l-21.818,14.118Z" style="fill:#dda800;"/><path d="M63.5,212.5l-33.5,16.5l-33.5,-16.5l33.5,-16.5l33.5,16.5Zm-62.474,0l28.974,14.271l28.974,-14.271l-28.974,-14.271l-28.974,14.271Z" style="fill:#dda800;"/></g><g><path d="M45.5,252.5l-15.5,16.5l-15.5,-16.5l15.5,-16.5l15.5,16.5Zm-28.256,0l12.756,13.579l12.756,-13.579l-12.756,-13.579l-12.756,13.579Z" style="fill:#dda800;"/><path d="M45.5,252.5l-15.5,16.5l-15.5,-16.5l15.5,-16.5l15.5,16.5Zm-28.256,0l12.756,13.579l12.756,-13.579l-12.756,-13.579l-12.756,13.579Z" style="fill:#dda800;"/><path d="M38.5,252.5l-8.5,16.5l-8.5,-16.5l8.5,-16.5l8.5,16.5Zm-14.75,0l6.25,12.133l6.25,-12.133l-6.25,-12.133l-6.25,12.133Z" style="fill:#dda800;"/><path d="M55.5,252.5l-25.5,16.5l-25.5,-16.5l25.5,-16.5l25.5,16.5Zm-47.318,0l21.818,14.118l21.818,-14.118l-21.818,-14.118l-21.818,14.118Z" style="fill:#dda800;"/><path d="M63.5,252.5l-33.5,16.5l-33.5,-16.5l33.5,-16.5l33.5,16.5Zm-62.474,0l28.974,14.271l28.974,-14.271l-28.974,-14.271l-28.974,14.271Z" style="fill:#dda800;"/></g><g><path d="M12,232.5l-15.5,16.5l-15.5,-16.5l15.5,-16.5l15.5,16.5Zm-28.256,0l12.756,13.579l12.756,-13.579l-12.756,-13.579l-12.756,13.579Z" style="fill:#dda800;"/><path d="M12,232.5l-15.5,16.5l-15.5,-16.5l15.5,-16.5l15.5,16.5Zm-28.256,0l12.756,13.579l12.756,-13.579l-12.756,-13.579l-12.756,13.579Z" style="fill:#dda800;"/><path d="M5,232.5l-8.5,16.5l-8.5,-16.5l8.5,-16.5l8.5,16.5Zm-14.75,0l6.25,12.133l6.25,-12.133l-6.25,-12.133l-6.25,12.133Z" style="fill:#dda800;"/><path d="M22,232.5l-25.5,16.5l-25.5,-16.5l25.5,-16.5l25.5,16.5Zm-47.318,0l21.818,14.118l21.818,-14.118l-21.818,-14.118l-21.818,14.118Z" style="fill:#dda800;"/><path d="M30,232.5l-33.5,16.5l-33.5,-16.5l33.5,-16.5l33.5,16.5Zm-62.474,0l28.974,14.271l28.974,-14.271l-28.974,-14.271l-28.974,14.271Z" style="fill:#dda800;"/></g><g><path d="M12,-7.5l-15.5,16.5l-15.5,-16.5l15.5,-16.5l15.5,16.5Zm-28.256,0l12.756,13.579l12.756,-13.579l-12.756,-13.579l-12.756,13.579Z" style="fill:#dda800;"/><path d="M12,-7.5l-15.5,16.5l-15.5,-16.5l15.5,-16.5l15.5,16.5Zm-28.256,0l12.756,13.579l12.756,-13.579l-12.756,-13.579l-12.756,13.579Z" style="fill:#dda800;"/><path d="M5,-7.5l-8.5,16.5l-8.5,-16.5l8.5,-16.5l8.5,16.5Zm-14.75,0l6.25,12.133l6.25,-12.133l-6.25,-12.133l-6.25,12.133Z" style="fill:#dda800;"/><path d="M22,-7.5l-25.5,16.5l-25.5,-16.5l25.5,-16.5l25.5,16.5Zm-47.318,0l21.818,14.118l21.818,-14.118l-21.818,-14.118l-21.818,14.118Z" style="fill:#dda800;"/><path d="M30,-7.5l-33.5,16.5l-33.5,-16.5l33.5,-16.5l33.5,16.5Zm-62.474,0l28.974,14.271l28.974,-14.271l-28.974,-14.271l-28.974,14.271Z" style="fill:#dda800;"/></g><g><path d="M45.5,292.5l-15.5,16.5l-15.5,-16.5l15.5,-16.5l15.5,16.5Zm-28.256,0l12.756,13.579l12.756,-13.579l-12.756,-13.579l-12.756,13.579Z" style="fill:#dda800;"/><path d="M45.5,292.5l-15.5,16.5l-15.5,-16.5l15.5,-16.5l15.5,16.5Zm-28.256,0l12.756,13.579l12.756,-13.579l-12.756,-13.579l-12.756,13.579Z" style="fill:#dda800;"/><path d="M38.5,292.5l-8.5,16.5l-8.5,-16.5l8.5,-16.5l8.5,16.5Zm-14.75,0l6.25,12.133l6.25,-12.133l-6.25,-12.133l-6.25,12.133Z" style="fill:#dda800;"/><path d="M55.5,292.5l-25.5,16.5l-25.5,-16.5l25.5,-16.5l25.5,16.5Zm-47.318,0l21.818,14.118l21.818,-14.118l-21.818,-14.118l-21.818,14.118Z" style="fill:#dda800;"/><path d="M63.5,292.5l-33.5,16.5l-33.5,-16.5l33.5,-16.5l33.5,16.5Zm-62.474,0l28.974,14.271l28.974,-14.271l-28.974,-14.271l-28.974,14.271Z" style="fill:#dda800;"/></g><g><path d="M12,312.5l-15.5,16.5l-15.5,-16.5l15.5,-16.5l15.5,16.5Zm-28.256,0l12.756,13.579l12.756,-13.579l-12.756,-13.579l-12.756,13.579Z" style="fill:#dda800;"/><path d="M12,312.5l-15.5,16.5l-15.5,-16.5l15.5,-16.5l15.5,16.5Zm-28.256,0l12.756,13.579l12.756,-13.579l-12.756,-13.579l-12.756,13.579Z" style="fill:#dda800;"/><path d="M5,312.5l-8.5,16.5l-8.5,-16.5l8.5,-16.5l8.5,16.5Zm-14.75,0l6.25,12.133l6.25,-12.133l-6.25,-12.133l-6.25,12.133Z" style="fill:#dda800;"/><path d="M22,312.5l-25.5,16.5l-25.5,-16.5l25.5,-16.5l25.5,16.5Zm-47.318,0l21.818,14.118l21.818,-14.118l-21.818,-14.118l-21.818,14.118Z" style="fill:#dda800;"/><path d="M30,312.5l-33.5,16.5l-33.5,-16.5l33.5,-16.5l33.5,16.5Zm-62.474,0l28.974,14.271l28.974,-14.271l-28.974,-14.271l-28.974,14.271Z" style="fill:#dda800;"/></g><g><path d="M45.5,332.5l-15.5,16.5l-15.5,-16.5l15.5,-16.5l15.5,16.5Zm-28.256,0l12.756,13.579l12.756,-13.579l-12.756,-13.579l-12.756,13.579Z" style="fill:#dda800;"/><path d="M45.5,332.5l-15.5,16.5l-15.5,-16.5l15.5,-16.5l15.5,16.5Zm-28.256,0l12.756,13.579l12.756,-13.579l-12.756,-13.579l-12.756,13.579Z" style="fill:#dda800;"/><path d="M38.5,332.5l-8.5,16.5l-8.5,-16.5l8.5,-16.5l8.5,16.5Zm-14.75,0l6.25,12.133l6.25,-12.133l-6.25,-12.133l-6.25,12.133Z" style="fill:#dda800;"/><path d="M55.5,332.5l-25.5,16.5l-25.5,-16.5l25.5,-16.5l25.5,16.5Zm-47.318,0l21.818,14.118l21.818,-14.118l-21.818,-14.118l-21.818,14.118Z" style="fill:#dda800;"/><path d="M63.5,332.5l-33.5,16.5l-33.5,-16.5l33.5,-16.5l33.5,16.5Zm-62.474,0l28.974,14.271l28.974,-14.271l-28.974,-14.271l-28.974,14.271Z" style="fill:#dda800;"/></g><g><path d="M12,352.5l-15.5,16.5l-15.5,-16.5l15.5,-16.5l15.5,16.5Zm-28.256,0l12.756,13.579l12.756,-13.579l-12.756,-13.579l-12.756,13.579Z" style="fill:#dda800;"/><path d="M12,352.5l-15.5,16.5l-15.5,-16.5l15.5,-16.5l15.5,16.5Zm-28.256,0l12.756,13.579l12.756,-13.579l-12.756,-13.579l-12.756,13.579Z" style="fill:#dda800;"/><path d="M5,352.5l-8.5,16.5l-8.5,-16.5l8.5,-16.5l8.5,16.5Zm-14.75,0l6.25,12.133l6.25,-12.133l-6.25,-12.133l-6.25,12.133Z" style="fill:#dda800;"/><path d="M22,352.5l-25.5,16.5l-25.5,-16.5l25.5,-16.5l25.5,16.5Zm-47.318,0l21.818,14.118l21.818,-14.118l-21.818,-14.118l-21.818,14.118Z" style="fill:#dda800;"/><path d="M30,352.5l-33.5,16.5l-33.5,-16.5l33.5,-16.5l33.5,16.5Zm-62.474,0l28.974,14.271l28.974,-14.271l-28.974,-14.271l-28.974,14.271Z" style="fill:#dda800;"/></g><g><path d="M45.5,372.5l-15.5,16.5l-15.5,-16.5l15.5,-16.5l15.5,16.5Zm-28.256,0l12.756,13.579l12.756,-13.579l-12.756,-13.579l-12.756,13.579Z" style="fill:#dda800;"/><path d="M45.5,372.5l-15.5,16.5l-15.5,-16.5l15.5,-16.5l15.5,16.5Zm-28.256,0l12.756,13.579l12.756,-13.579l-12.756,-13.579l-12.756,13.579Z" style="fill:#dda800;"/><path d="M38.5,372.5l-8.5,16.5l-8.5,-16.5l8.5,-16.5l8.5,16.5Zm-14.75,0l6.25,12.133l6.25,-12.133l-6.25,-12.133l-6.25,12.133Z" style="fill:#dda800;"/><path d="M55.5,372.5l-25.5,16.5l-25.5,-16.5l25.5,-16.5l25.5,16.5Zm-47.318,0l21.818,14.118l21.818,-14.118l-21.818,-14.118l-21.818,14.118Z" style="fill:#dda800;"/><path d="M63.5,372.5l-33.5,16.5l-33.5,-16.5l33.5,-16.5l33.5,16.5Zm-62.474,0l28.974,14.271l28.974,-14.271l-28.974,-14.271l-28.974,14.271Z" style="fill:#dda800;"/></g><g><path d="M12,392.5l-15.5,16.5l-15.5,-16.5l15.5,-16.5l15.5,16.5Zm-28.256,0l12.756,13.579l12.756,-13.579l-12.756,-13.579l-12.756,13.579Z" style="fill:#dda800;"/><path d="M12,392.5l-15.5,16.5l-15.5,-16.5l15.5,-16.5l15.5,16.5Zm-28.256,0l12.756,13.579l12.756,-13.579l-12.756,-13.579l-12.756,13.579Z" style="fill:#dda800;"/><path d="M5,392.5l-8.5,16.5l-8.5,-16.5l8.5,-16.5l8.5,16.5Zm-14.75,0l6.25,12.133l6.25,-12.133l-6.25,-12.133l-6.25,12.133Z" style="fill:#dda800;"/><path d="M22,392.5l-25.5,16.5l-25.5,-16.5l25.5,-16.5l25.5,16.5Zm-47.318,0l21.818,14.118l21.818,-14.118l-21.818,-14.118l-21.818,14.118Z" style="fill:#dda800;"/><path d="M30,392.5l-33.5,16.5l-33.5,-16.5l33.5,-16.5l33.5,16.5Zm-62.474,0l28.974,14.271l28.974,-14.271l-28.974,-14.271l-28.974,14.271Z" style="fill:#dda800;"/></g><g><path d="M80,392.5l-15.5,16.5l-15.5,-16.5l15.5,-16.5l15.5,16.5Zm-28.256,0l12.756,13.579l12.756,-13.579l-12.756,-13.579l-12.756,13.579Z" style="fill:#dda800;"/><path d="M80,392.5l-15.5,16.5l-15.5,-16.5l15.5,-16.5l15.5,16.5Zm-28.256,0l12.756,13.579l12.756,-13.579l-12.756,-13.579l-12.756,13.579Z" style="fill:#dda800;"/><path d="M73,392.5l-8.5,16.5l-8.5,-16.5l8.5,-16.5l8.5,16.5Zm-14.75,0l6.25,12.133l6.25,-12.133l-6.25,-12.133l-6.25,12.133Z" style="fill:#dda800;"/><path d="M90,392.5l-25.5,16.5l-25.5,-16.5l25.5,-16.5l25.5,16.5Zm-47.318,0l21.818,14.118l21.818,-14.118l-21.818,-14.118l-21.818,14.118Z" style="fill:#dda800;"/><path d="M98,392.5l-33.5,16.5l-33.5,-16.5l33.5,-16.5l33.5,16.5Zm-62.474,0l28.974,14.271l28.974,-14.271l-28.974,-14.271l-28.974,14.271Z" style="fill:#dda800;"/></g><g><path d="M45.5,412.5l-15.5,16.5l-15.5,-16.5l15.5,-16.5l15.5,16.5Zm-28.256,0l12.756,13.579l12.756,-13.579l-12.756,-13.579l-12.756,13.579Z" style="fill:#dda800;"/><path d="M45.5,412.5l-15.5,16.5l-15.5,-16.5l15.5,-16.5l15.5,16.5Zm-28.256,0l12.756,13.579l12.756,-13.579l-12.756,-13.579l-12.756,13.579Z" style="fill:#dda800;"/><path d="M38.5,412.5l-8.5,16.5l-8.5,-16.5l8.5,-16.5l8.5,16.5Zm-14.75,0l6.25,12.133l6.25,-12.133l-6.25,-12.133l-6.25,12.133Z" style="fill:#dda800;"/><path d="M55.5,412.5l-25.5,16.5l-25.5,-16.5l25.5,-16.5l25.5,16.5Zm-47.318,0l21.818,14.118l21.818,-14.118l-21.818,-14.118l-21.818,14.118Z" style="fill:#dda800;"/><path d="M63.5,412.5l-33.5,16.5l-33.5,-16.5l33.5,-16.5l33.5,16.5Zm-62.474,0l28.974,14.271l28.974,-14.271l-28.974,-14.271l-28.974,14.271Z" style="fill:#dda800;"/></g><g><path d="M12,432.5l-15.5,16.5l-15.5,-16.5l15.5,-16.5l15.5,16.5Zm-28.256,0l12.756,13.579l12.756,-13.579l-12.756,-13.579l-12.756,13.579Z" style="fill:#dda800;"/><path d="M12,432.5l-15.5,16.5l-15.5,-16.5l15.5,-16.5l15.5,16.5Zm-28.256,0l12.756,13.579l12.756,-13.579l-12.756,-13.579l-12.756,13.579Z" style="fill:#dda800;"/><path d="M5,432.5l-8.5,16.5l-8.5,-16.5l8.5,-16.5l8.5,16.5Zm-14.75,0l6.25,12.133l6.25,-12.133l-6.25,-12.133l-6.25,12.133Z" style="fill:#dda800;"/><path d="M22,432.5l-25.5,16.5l-25.5,-16.5l25.5,-16.5l25.5,16.5Zm-47.318,0l21.818,14.118l21.818,-14.118l-21.818,-14.118l-21.818,14.118Z" style="fill:#dda800;"/><path d="M30,432.5l-33.5,16.5l-33.5,-16.5l33.5,-16.5l33.5,16.5Zm-62.474,0l28.974,14.271l28.974,-14.271l-28.974,-14.271l-28.974,14.271Z" style="fill:#dda800;"/></g><g><path d="M45.5,452.5l-15.5,16.5l-15.5,-16.5l15.5,-16.5l15.5,16.5Zm-28.256,0l12.756,13.579l12.756,-13.579l-12.756,-13.579l-12.756,13.579Z" style="fill:#dda800;"/><path d="M45.5,452.5l-15.5,16.5l-15.5,-16.5l15.5,-16.5l15.5,16.5Zm-28.256,0l12.756,13.579l12.756,-13.579l-12.756,-13.579l-12.756,13.579Z" style="fill:#dda800;"/><path d="M38.5,452.5l-8.5,16.5l-8.5,-16.5l8.5,-16.5l8.5,16.5Zm-14.75,0l6.25,12.133l6.25,-12.133l-6.25,-12.133l-6.25,12.133Z" style="fill:#dda800;"/><path d="M55.5,452.5l-25.5,16.5l-25.5,-16.5l25.5,-16.5l25.5,16.5Zm-47.318,0l21.818,14.118l21.818,-14.118l-21.818,-14.118l-21.818,14.118Z" style="fill:#dda800;"/><path d="M63.5,452.5l-33.5,16.5l-33.5,-16.5l33.5,-16.5l33.5,16.5Zm-62.474,0l28.974,14.271l28.974,-14.271l-28.974,-14.271l-28.974,14.271Z" style="fill:#dda800;"/></g><g><path d="M12,472.5l-15.5,16.5l-15.5,-16.5l15.5,-16.5l15.5,16.5Zm-28.256,0l12.756,13.579l12.756,-13.579l-12.756,-13.579l-12.756,13.579Z" style="fill:#dda800;"/><path d="M12,472.5l-15.5,16.5l-15.5,-16.5l15.5,-16.5l15.5,16.5Zm-28.256,0l12.756,13.579l12.756,-13.579l-12.756,-13.579l-12.756,13.579Z" style="fill:#dda800;"/><path d="M5,472.5l-8.5,16.5l-8.5,-16.5l8.5,-16.5l8.5,16.5Zm-14.75,0l6.25,12.133l6.25,-12.133l-6.25,-12.133l-6.25,12.133Z" style="fill:#dda800;"/><path d="M22,472.5l-25.5,16.5l-25.5,-16.5l25.5,-16.5l25.5,16.5Zm-47.318,0l21.818,14.118l21.818,-14.118l-21.818,-14.118l-21.818,14.118Z" style="fill:#dda800;"/><path d="M30,472.5l-33.5,16.5l-33.5,-16.5l33.5,-16.5l33.5,16.5Zm-62.474,0l28.974,14.271l28.974,-14.271l-28.974,-14.271l-28.974,14.271Z" style="fill:#dda800;"/></g><g><path d="M45.5,492.5l-15.5,16.5l-15.5,-16.5l15.5,-16.5l15.5,16.5Zm-28.256,0l12.756,13.579l12.756,-13.579l-12.756,-13.579l-12.756,13.579Z" style="fill:#dda800;"/><path d="M45.5,492.5l-15.5,16.5l-15.5,-16.5l15.5,-16.5l15.5,16.5Zm-28.256,0l12.756,13.579l12.756,-13.579l-12.756,-13.579l-12.756,13.579Z" style="fill:#dda800;"/><path d="M38.5,492.5l-8.5,16.5l-8.5,-16.5l8.5,-16.5l8.5,16.5Zm-14.75,0l6.25,12.133l6.25,-12.133l-6.25,-12.133l-6.25,12.133Z" style="fill:#dda800;"/><path d="M55.5,492.5l-25.5,16.5l-25.5,-16.5l25.5,-16.5l25.5,16.5Zm-47.318,0l21.818,14.118l21.818,-14.118l-21.818,-14.118l-21.818,14.118Z" style="fill:#dda800;"/><path d="M63.5,492.5l-33.5,16.5l-33.5,-16.5l33.5,-16.5l33.5,16.5Zm-62.474,0l28.974,14.271l28.974,-14.271l-28.974,-14.271l-28.974,14.271Z" style="fill:#dda800;"/></g><g><path d="M12,272.5l-15.5,16.5l-15.5,-16.5l15.5,-16.5l15.5,16.5Zm-28.256,0l12.756,13.579l12.756,-13.579l-12.756,-13.579l-12.756,13.579Z" style="fill:#dda800;"/><path d="M12,272.5l-15.5,16.5l-15.5,-16.5l15.5,-16.5l15.5,16.5Zm-28.256,0l12.756,13.579l12.756,-13.579l-12.756,-13.579l-12.756,13.579Z" style="fill:#dda800;"/><path d="M5,272.5l-8.5,16.5l-8.5,-16.5l8.5,-16.5l8.5,16.5Zm-14.75,0l6.25,12.133l6.25,-12.133l-6.25,-12.133l-6.25,12.133Z" style="fill:#dda800;"/><path d="M22,272.5l-25.5,16.5l-25.5,-16.5l25.5,-16.5l25.5,16.5Zm-47.318,0l21.818,14.118l21.818,-14.118l-21.818,-14.118l-21.818,14.118Z" style="fill:#dda800;"/><path d="M30,272.5l-33.5,16.5l-33.5,-16.5l33.5,-16.5l33.5,16.5Zm-62.474,0l28.974,14.271l28.974,-14.271l-28.974,-14.271l-28.974,14.271Z" style="fill:#dda800;"/></g><g><path d="M80,32.5l-15.5,16.5l-15.5,-16.5l15.5,-16.5l15.5,16.5Zm-28.256,0l12.756,13.579l12.756,-13.579l-12.756,-13.579l-12.756,13.579Z" style="fill:#dda800;"/><path d="M80,32.5l-15.5,16.5l-15.5,-16.5l15.5,-16.5l15.5,16.5Zm-28.256,0l12.756,13.579l12.756,-13.579l-12.756,-13.579l-12.756,13.579Z" style="fill:#dda800;"/><path d="M73,32.5l-8.5,16.5l-8.5,-16.5l8.5,-16.5l8.5,16.5Zm-14.75,0l6.25,12.133l6.25,-12.133l-6.25,-12.133l-6.25,12.133Z" style="fill:#dda800;"/><path d="M90,32.5l-25.5,16.5l-25.5,-16.5l25.5,-16.5l25.5,16.5Zm-47.318,0l21.818,14.118l21.818,-14.118l-21.818,-14.118l-21.818,14.118Z" style="fill:#dda800;"/><path d="M98,32.5l-33.5,16.5l-33.5,-16.5l33.5,-16.5l33.5,16.5Zm-62.474,0l28.974,14.271l28.974,-14.271l-28.974,-14.271l-28.974,14.271Z" style="fill:#dda800;"/></g><g><path d="M80,72.5l-15.5,16.5l-15.5,-16.5l15.5,-16.5l15.5,16.5Zm-28.256,0l12.756,13.579l12.756,-13.579l-12.756,-13.579l-12.756,13.579Z" style="fill:#dda800;"/><path d="M80,72.5l-15.5,16.5l-15.5,-16.5l15.5,-16.5l15.5,16.5Zm-28.256,0l12.756,13.579l12.756,-13.579l-12.756,-13.579l-12.756,13.579Z" style="fill:#dda800;"/><path d="M73,72.5l-8.5,16.5l-8.5,-16.5l8.5,-16.5l8.5,16.5Zm-14.75,0l6.25,12.133l6.25,-12.133l-6.25,-12.133l-6.25,12.133Z" style="fill:#dda800;"/><path d="M90,72.5l-25.5,16.5l-25.5,-16.5l25.5,-16.5l25.5,16.5Zm-47.318,0l21.818,14.118l21.818,-14.118l-21.818,-14.118l-21.818,14.118Z" style="fill:#dda800;"/><path d="M98,72.5l-33.5,16.5l-33.5,-16.5l33.5,-16.5l33.5,16.5Zm-62.474,0l28.974,14.271l28.974,-14.271l-28.974,-14.271l-28.974,14.271Z" style="fill:#dda800;"/></g><g><path d="M80,112.5l-15.5,16.5l-15.5,-16.5l15.5,-16.5l15.5,16.5Zm-28.256,0l12.756,13.579l12.756,-13.579l-12.756,-13.579l-12.756,13.579Z" style="fill:#dda800;"/><path d="M80,112.5l-15.5,16.5l-15.5,-16.5l15.5,-16.5l15.5,16.5Zm-28.256,0l12.756,13.579l12.756,-13.579l-12.756,-13.579l-12.756,13.579Z" style="fill:#dda800;"/><path d="M73,112.5l-8.5,16.5l-8.5,-16.5l8.5,-16.5l8.5,16.5Zm-14.75,0l6.25,12.133l6.25,-12.133l-6.25,-12.133l-6.25,12.133Z" style="fill:#dda800;"/><path d="M90,112.5l-25.5,16.5l-25.5,-16.5l25.5,-16.5l25.5,16.5Zm-47.318,0l21.818,14.118l21.818,-14.118l-21.818,-14.118l-21.818,14.118Z" style="fill:#dda800;"/><path d="M98,112.5l-33.5,16.5l-33.5,-16.5l33.5,-16.5l33.5,16.5Zm-62.474,0l28.974,14.271l28.974,-14.271l-28.974,-14.271l-28.974,14.271Z" style="fill:#dda800;"/></g><g><path d="M80,152.5l-15.5,16.5l-15.5,-16.5l15.5,-16.5l15.5,16.5Zm-28.256,0l12.756,13.579l12.756,-13.579l-12.756,-13.579l-12.756,13.579Z" style="fill:#dda800;"/><path d="M80,152.5l-15.5,16.5l-15.5,-16.5l15.5,-16.5l15.5,16.5Zm-28.256,0l12.756,13.579l12.756,-13.579l-12.756,-13.579l-12.756,13.579Z" style="fill:#dda800;"/><path d="M73,152.5l-8.5,16.5l-8.5,-16.5l8.5,-16.5l8.5,16.5Zm-14.75,0l6.25,12.133l6.25,-12.133l-6.25,-12.133l-6.25,12.133Z" style="fill:#dda800;"/><path d="M90,152.5l-25.5,16.5l-25.5,-16.5l25.5,-16.5l25.5,16.5Zm-47.318,0l21.818,14.118l21.818,-14.118l-21.818,-14.118l-21.818,14.118Z" style="fill:#dda800;"/><path d="M98,152.5l-33.5,16.5l-33.5,-16.5l33.5,-16.5l33.5,16.5Zm-62.474,0l28.974,14.271l28.974,-14.271l-28.974,-14.271l-28.974,14.271Z" style="fill:#dda800;"/></g><g><path d="M80,192.5l-15.5,16.5l-15.5,-16.5l15.5,-16.5l15.5,16.5Zm-28.256,0l12.756,13.579l12.756,-13.579l-12.756,-13.579l-12.756,13.579Z" style="fill:#dda800;"/><path d="M80,192.5l-15.5,16.5l-15.5,-16.5l15.5,-16.5l15.5,16.5Zm-28.256,0l12.756,13.579l12.756,-13.579l-12.756,-13.579l-12.756,13.579Z" style="fill:#dda800;"/><path d="M73,192.5l-8.5,16.5l-8.5,-16.5l8.5,-16.5l8.5,16.5Zm-14.75,0l6.25,12.133l6.25,-12.133l-6.25,-12.133l-6.25,12.133Z" style="fill:#dda800;"/><path d="M90,192.5l-25.5,16.5l-25.5,-16.5l25.5,-16.5l25.5,16.5Zm-47.318,0l21.818,14.118l21.818,-14.118l-21.818,-14.118l-21.818,14.118Z" style="fill:#dda800;"/><path d="M98,192.5l-33.5,16.5l-33.5,-16.5l33.5,-16.5l33.5,16.5Zm-62.474,0l28.974,14.271l28.974,-14.271l-28.974,-14.271l-28.974,14.271Z" style="fill:#dda800;"/></g><g><path d="M80,232.5l-15.5,16.5l-15.5,-16.5l15.5,-16.5l15.5,16.5Zm-28.256,0l12.756,13.579l12.756,-13.579l-12.756,-13.579l-12.756,13.579Z" style="fill:#dda800;"/><path d="M80,232.5l-15.5,16.5l-15.5,-16.5l15.5,-16.5l15.5,16.5Zm-28.256,0l12.756,13.579l12.756,-13.579l-12.756,-13.579l-12.756,13.579Z" style="fill:#dda800;"/><path d="M73,232.5l-8.5,16.5l-8.5,-16.5l8.5,-16.5l8.5,16.5Zm-14.75,0l6.25,12.133l6.25,-12.133l-6.25,-12.133l-6.25,12.133Z" style="fill:#dda800;"/><path d="M90,232.5l-25.5,16.5l-25.5,-16.5l25.5,-16.5l25.5,16.5Zm-47.318,0l21.818,14.118l21.818,-14.118l-21.818,-14.118l-21.818,14.118Z" style="fill:#dda800;"/><path d="M98,232.5l-33.5,16.5l-33.5,-16.5l33.5,-16.5l33.5,16.5Zm-62.474,0l28.974,14.271l28.974,-14.271l-28.974,-14.271l-28.974,14.271Z" style="fill:#dda800;"/></g><g><path d="M80,-7.5l-15.5,16.5l-15.5,-16.5l15.5,-16.5l15.5,16.5Zm-28.256,0l12.756,13.579l12.756,-13.579l-12.756,-13.579l-12.756,13.579Z" style="fill:#dda800;"/><path d="M80,-7.5l-15.5,16.5l-15.5,-16.5l15.5,-16.5l15.5,16.5Zm-28.256,0l12.756,13.579l12.756,-13.579l-12.756,-13.579l-12.756,13.579Z" style="fill:#dda800;"/><path d="M73,-7.5l-8.5,16.5l-8.5,-16.5l8.5,-16.5l8.5,16.5Zm-14.75,0l6.25,12.133l6.25,-12.133l-6.25,-12.133l-6.25,12.133Z" style="fill:#dda800;"/><path d="M90,-7.5l-25.5,16.5l-25.5,-16.5l25.5,-16.5l25.5,16.5Zm-47.318,0l21.818,14.118l21.818,-14.118l-21.818,-14.118l-21.818,14.118Z" style="fill:#dda800;"/><path d="M98,-7.5l-33.5,16.5l-33.5,-16.5l33.5,-16.5l33.5,16.5Zm-62.474,0l28.974,14.271l28.974,-14.271l-28.974,-14.271l-28.974,14.271Z" style="fill:#dda800;"/></g><g><path d="M80,312.5l-15.5,16.5l-15.5,-16.5l15.5,-16.5l15.5,16.5Zm-28.256,0l12.756,13.579l12.756,-13.579l-12.756,-13.579l-12.756,13.579Z" style="fill:#dda800;"/><path d="M80,312.5l-15.5,16.5l-15.5,-16.5l15.5,-16.5l15.5,16.5Zm-28.256,0l12.756,13.579l12.756,-13.579l-12.756,-13.579l-12.756,13.579Z" style="fill:#dda800;"/><path d="M73,312.5l-8.5,16.5l-8.5,-16.5l8.5,-16.5l8.5,16.5Zm-14.75,0l6.25,12.133l6.25,-12.133l-6.25,-12.133l-6.25,12.133Z" style="fill:#dda800;"/><path d="M90,312.5l-25.5,16.5l-25.5,-16.5l25.5,-16.5l25.5,16.5Zm-47.318,0l21.818,14.118l21.818,-14.118l-21.818,-14.118l-21.818,14.118Z" style="fill:#dda800;"/><path d="M98,312.5l-33.5,16.5l-33.5,-16.5l33.5,-16.5l33.5,16.5Zm-62.474,0l28.974,14.271l28.974,-14.271l-28.974,-14.271l-28.974,14.271Z" style="fill:#dda800;"/></g><g><path d="M80,352.5l-15.5,16.5l-15.5,-16.5l15.5,-16.5l15.5,16.5Zm-28.256,0l12.756,13.579l12.756,-13.579l-12.756,-13.579l-12.756,13.579Z" style="fill:#dda800;"/><path d="M80,352.5l-15.5,16.5l-15.5,-16.5l15.5,-16.5l15.5,16.5Zm-28.256,0l12.756,13.579l12.756,-13.579l-12.756,-13.579l-12.756,13.579Z" style="fill:#dda800;"/><path d="M73,352.5l-8.5,16.5l-8.5,-16.5l8.5,-16.5l8.5,16.5Zm-14.75,0l6.25,12.133l6.25,-12.133l-6.25,-12.133l-6.25,12.133Z" style="fill:#dda800;"/><path d="M90,352.5l-25.5,16.5l-25.5,-16.5l25.5,-16.5l25.5,16.5Zm-47.318,0l21.818,14.118l21.818,-14.118l-21.818,-14.118l-21.818,14.118Z" style="fill:#dda800;"/><path d="M98,352.5l-33.5,16.5l-33.5,-16.5l33.5,-16.5l33.5,16.5Zm-62.474,0l28.974,14.271l28.974,-14.271l-28.974,-14.271l-28.974,14.271Z" style="fill:#dda800;"/></g><g><path d="M80,432.5l-15.5,16.5l-15.5,-16.5l15.5,-16.5l15.5,16.5Zm-28.256,0l12.756,13.579l12.756,-13.579l-12.756,-13.579l-12.756,13.579Z" style="fill:#dda800;"/><path d="M80,432.5l-15.5,16.5l-15.5,-16.5l15.5,-16.5l15.5,16.5Zm-28.256,0l12.756,13.579l12.756,-13.579l-12.756,-13.579l-12.756,13.579Z" style="fill:#dda800;"/><path d="M73,432.5l-8.5,16.5l-8.5,-16.5l8.5,-16.5l8.5,16.5Zm-14.75,0l6.25,12.133l6.25,-12.133l-6.25,-12.133l-6.25,12.133Z" style="fill:#dda800;"/><path d="M90,432.5l-25.5,16.5l-25.5,-16.5l25.5,-16.5l25.5,16.5Zm-47.318,0l21.818,14.118l21.818,-14.118l-21.818,-14.118l-21.818,14.118Z" style="fill:#dda800;"/><path d="M98,432.5l-33.5,16.5l-33.5,-16.5l33.5,-16.5l33.5,16.5Zm-62.474,0l28.974,14.271l28.974,-14.271l-28.974,-14.271l-28.974,14.271Z" style="fill:#dda800;"/></g><g><path d="M80,472.5l-15.5,16.5l-15.5,-16.5l15.5,-16.5l15.5,16.5Zm-28.256,0l12.756,13.579l12.756,-13.579l-12.756,-13.579l-12.756,13.579Z" style="fill:#dda800;"/><path d="M80,472.5l-15.5,16.5l-15.5,-16.5l15.5,-16.5l15.5,16.5Zm-28.256,0l12.756,13.579l12.756,-13.579l-12.756,-13.579l-12.756,13.579Z" style="fill:#dda800;"/><path d="M73,472.5l-8.5,16.5l-8.5,-16.5l8.5,-16.5l8.5,16.5Zm-14.75,0l6.25,12.133l6.25,-12.133l-6.25,-12.133l-6.25,12.133Z" style="fill:#dda800;"/><path d="M90,472.5l-25.5,16.5l-25.5,-16.5l25.5,-16.5l25.5,16.5Zm-47.318,0l21.818,14.118l21.818,-14.118l-21.818,-14.118l-21.818,14.118Z" style="fill:#dda800;"/><path d="M98,472.5l-33.5,16.5l-33.5,-16.5l33.5,-16.5l33.5,16.5Zm-62.474,0l28.974,14.271l28.974,-14.271l-28.974,-14.271l-28.974,14.271Z" style="fill:#dda800;"/></g><g><path d="M80,272.5l-15.5,16.5l-15.5,-16.5l15.5,-16.5l15.5,16.5Zm-28.256,0l12.756,13.579l12.756,-13.579l-12.756,-13.579l-12.756,13.579Z" style="fill:#dda800;"/><path d="M80,272.5l-15.5,16.5l-15.5,-16.5l15.5,-16.5l15.5,16.5Zm-28.256,0l12.756,13.579l12.756,-13.579l-12.756,-13.579l-12.756,13.579Z" style="fill:#dda800;"/><path d="M73,272.5l-8.5,16.5l-8.5,-16.5l8.5,-16.5l8.5,16.5Zm-14.75,0l6.25,12.133l6.25,-12.133l-6.25,-12.133l-6.25,12.133Z" style="fill:#dda800;"/><path d="M90,272.5l-25.5,16.5l-25.5,-16.5l25.5,-16.5l25.5,16.5Zm-47.318,0l21.818,14.118l21.818,-14.118l-21.818,-14.118l-21.818,14.118Z" style="fill:#dda800;"/><path d="M98,272.5l-33.5,16.5l-33.5,-16.5l33.5,-16.5l33.5,16.5Zm-62.474,0l28.974,14.271l28.974,-14.271l-28.974,-14.271l-28.974,14.271Z" style="fill:#dda800;"/></g></svg>