<?xml version="1.0" encoding="UTF-8" standalone="no"?><!DOCTYPE svg PUBLIC "-//W3C//DTD SVG 1.1//EN" "http://www.w3.org/Graphics/SVG/1.1/DTD/svg11.dtd"><svg width="100%" height="100%" viewBox="0 0 100 100" version="1.1" xmlns="http://www.w3.org/2000/svg" xmlns:xlink="http://www.w3.org/1999/xlink" xml:space="preserve" style="fill-rule:evenodd;clip-rule:evenodd;stroke-linejoin:round;stroke-miterlimit:1.41421;"><g><path d="M69.333,15.681c0,0 -19.561,8.872 -28.912,33.605c-4.16,11.004 -1.18,22.33 6.651,25.276c7.832,2.946 17.567,-3.596 21.727,-14.6c9.351,-24.733 0.534,-44.281 0.534,-44.281Z" style="fill:#d4af37;"/><path d="M67.773,19.808c0,0 -15.894,8.545 -24.262,30.678c-3.723,9.848 -1.777,19.711 4.342,22.013c6.118,2.302 14.109,-3.824 17.831,-13.671c8.368,-22.134 2.089,-39.02 2.089,-39.02Z" style="fill:#24282b;"/></g><g><path d="M99.021,38.858c0,0 -21.141,-3.84 -42.962,11.158c-9.709,6.672 -13.735,17.671 -8.987,24.546c4.749,6.875 16.486,7.04 26.195,0.367c21.821,-14.998 25.754,-36.071 25.754,-36.071Z" style="fill:#d4af37;"/><path d="M95.38,41.36c0,0 -17.942,-2.022 -37.469,11.399c-8.687,5.971 -12.729,15.18 -9.018,20.552c3.71,5.372 13.776,4.885 22.464,-1.086c19.527,-13.421 24.023,-30.865 24.023,-30.865Z" style="fill:#24282b;"/></g><g><path d="M93.314,62.155c0,0 -13.185,-8.872 -32.715,-5.365c-8.689,1.561 -14.862,7.706 -13.778,13.715c1.085,6.009 9.019,9.621 17.708,8.06c19.53,-3.507 28.785,-16.41 28.785,-16.41Z" style="fill:#d4af37;"/><path d="M90.056,62.741c0,0 -11.576,-6.704 -29.053,-3.565c-7.775,1.396 -13.4,6.342 -12.553,11.036c0.848,4.695 7.848,7.373 15.624,5.977c17.476,-3.139 25.982,-13.448 25.982,-13.448Z" style="fill:#24282b;"/></g><g><path d="M84.895,24.197c0,0 -21.265,3.086 -37.152,24.242c-7.069,9.412 -7.369,21.118 -0.671,26.123c6.699,5.006 17.876,1.428 24.945,-7.984c15.887,-21.157 12.878,-42.381 12.878,-42.381Z" style="fill:#d4af37;"/><path d="M82.244,27.727c0,0 -17.651,3.791 -31.869,22.723c-6.325,8.423 -7.211,18.436 -1.977,22.347c5.234,3.911 14.618,0.248 20.944,-8.175c14.217,-18.932 12.902,-36.895 12.902,-36.895Z" style="fill:#24282b;"/></g><g><path d="M30.667,15.681c0,0 19.561,8.872 28.912,33.605c4.16,11.004 1.18,22.33 -6.651,25.276c-7.832,2.946 -17.567,-3.596 -21.727,-14.6c-9.351,-24.733 -0.534,-44.281 -0.534,-44.281Z" style="fill:#d4af37;"/><path d="M32.227,19.808c0,0 15.894,8.545 24.262,30.678c3.723,9.848 1.777,19.711 -4.342,22.013c-6.118,2.302 -14.109,-3.824 -17.831,-13.671c-8.368,-22.134 -2.089,-39.02 -2.089,-39.02Z" style="fill:#24282b;"/></g><g><path d="M0.979,38.858c0,0 21.141,-3.84 42.962,11.158c9.709,6.672 13.735,17.671 8.987,24.546c-4.749,6.875 -16.486,7.04 -26.195,0.367c-21.821,-14.998 -25.754,-36.071 -25.754,-36.071Z" style="fill:#d4af37;"/><path d="M4.62,41.36c0,0 17.942,-2.022 37.469,11.399c8.687,5.971 12.729,15.18 9.018,20.552c-3.71,5.372 -13.776,4.885 -22.464,-1.086c-19.527,-13.421 -24.023,-30.865 -24.023,-30.865Z" style="fill:#24282b;"/></g><g><path d="M6.686,62.155c0,0 13.185,-8.872 32.715,-5.365c8.689,1.561 14.862,7.706 13.778,13.715c-1.085,6.009 -9.019,9.621 -17.708,8.06c-19.53,-3.507 -28.785,-16.41 -28.785,-16.41Z" style="fill:#d4af37;"/><path d="M9.944,62.741c0,0 11.576,-6.704 29.053,-3.565c7.775,1.396 13.4,6.342 12.553,11.036c-0.848,4.695 -7.848,7.373 -15.624,5.977c-17.476,-3.139 -25.982,-13.448 -25.982,-13.448Z" style="fill:#24282b;"/></g><g><path d="M15.105,24.197c0,0 21.265,3.086 37.152,24.242c7.069,9.412 7.369,21.118 0.671,26.123c-6.699,5.006 -17.876,1.428 -24.945,-7.984c-15.887,-21.157 -12.878,-42.381 -12.878,-42.381Z" style="fill:#d4af37;"/><path d="M17.756,27.727c0,0 17.651,3.791 31.869,22.723c6.325,8.423 7.211,18.436 1.977,22.347c-5.234,3.911 -14.618,0.248 -20.944,-8.175c-14.217,-18.932 -12.902,-36.895 -12.902,-36.895Z" style="fill:#24282b;"/></g><g><path d="M49.772,16.023c0,0 -15.617,15.679 -15.617,42.968c0,12.141 6.998,21.998 15.617,21.998c8.619,0 15.617,-9.857 15.617,-21.998c0,-27.289 -15.617,-42.968 -15.617,-42.968Z" style="fill:#d4af37;"/><path d="M49.772,20.577c0,0 -12.202,14.03 -12.202,38.45c0,10.865 5.467,19.685 12.202,19.685c6.734,0 12.202,-8.82 12.202,-19.685c0,-24.42 -12.202,-38.45 -12.202,-38.45Z" style="fill:#24282b;"/></g></svg>