<?xml version="1.0" encoding="UTF-8" standalone="no"?><!DOCTYPE svg PUBLIC "-//W3C//DTD SVG 1.1//EN" "http://www.w3.org/Graphics/SVG/1.1/DTD/svg11.dtd"><svg width="100%" height="100%" viewBox="0 0 78 256" version="1.1" xmlns="http://www.w3.org/2000/svg" xmlns:xlink="http://www.w3.org/1999/xlink" xml:space="preserve" style="fill-rule:evenodd;clip-rule:evenodd;stroke-linecap:round;stroke-linejoin:round;stroke-miterlimit:1.5;"><g id="corner"><path d="M39.957,256c0,0 -0.21,-36.733 36.521,-41.739" style="fill:none;stroke:#c3a300;stroke-width:1px;"/><path d="M76.478,255.304l-36.522,-0.347" style="fill:none;stroke:#c2a201;stroke-width:1px;"/><path d="M76.478,255.304l0,-41.043" style="fill:none;stroke:#c2a201;stroke-width:1px;"/><path d="M76.588,255.204l-25.333,-27.789" style="fill:none;stroke:#c2a201;stroke-width:1px;"/><path d="M76.478,255.304l-33.114,-16.496" style="fill:none;stroke:#c2a201;stroke-width:1px;"/><path d="M76.478,255.304l-12.556,-37.365" style="fill:none;stroke:#c2a201;stroke-width:1px;"/><path d="M76.478,255.304l-35.443,-8.302" style="fill:none;stroke:#c2a201;stroke-width:1px;"/><path d="M76.478,255.304l-29.48,-22.835" style="fill:none;stroke:#c2a201;stroke-width:1px;"/><path d="M76.478,255.304l-19.831,-33.454" style="fill:none;stroke:#c2a201;stroke-width:1px;"/><path d="M76.58,255.288l-6.228,-39.481" style="fill:none;stroke:#c2a201;stroke-width:1px;"/></g><path d="M4.478,0l0,256" style="fill:none;stroke:#c2a201;stroke-width:1px;"/><path d="M1,0l0,256" style="fill:none;stroke:#c2a201;stroke-width:2px;"/><path d="M1.696,256l74.434,-74.087" style="fill:none;stroke:#c2a201;stroke-width:1px;"/><path d="M4.478,192.696l29.409,31.263" style="fill:none;stroke:#c2a201;stroke-width:1px;"/><path d="M4.478,186.435l32.888,34.393" style="fill:none;stroke:#c2a201;stroke-width:1px;"/><path d="M4.478,179.826l35.323,37.524" style="fill:none;stroke:#c2a201;stroke-width:1px;"/><path d="M4.478,172.277l38.801,42.394" style="fill:none;stroke:#c2a201;stroke-width:1px;"/><path d="M4.478,166.364l41.931,45.176" style="fill:none;stroke:#c2a201;stroke-width:1px;"/><path d="M4.478,159.756l45.409,48.306" style="fill:none;stroke:#c2a201;stroke-width:1px;"/><path d="M4.478,153.147l48.192,51.785" style="fill:none;stroke:#c2a201;stroke-width:1px;"/><path d="M15.06,162.981l62.065,-62.864" style="fill:none;stroke:#c2a201;stroke-width:1px;"/><path d="M47.06,138.633l30.065,-29.821" style="fill:none;stroke:#c2a201;stroke-width:1px;"/><path d="M56.103,138.633l21.022,-21.647" style="fill:none;stroke:#c2a201;stroke-width:1px;"/><path d="M64.451,138.633l12.674,-13.473" style="fill:none;stroke:#c2a201;stroke-width:1px;"/><path d="M39.06,138.633l38.065,-0.085" style="fill:none;stroke:#c2a201;stroke-width:1px;"/><path d="M1.348,81.739l45.913,48.348" style="fill:none;stroke:#c2a201;stroke-width:1px;"/><path d="M1.348,81.739l75.777,0" style="fill:none;stroke:#c2a201;stroke-width:1px;"/><path d="M17.696,81.739l0,17.044" style="fill:none;stroke:#c2a201;stroke-width:1px;"/><path d="M36.826,81.739l-0.348,36.87" style="fill:none;stroke:#c2a201;stroke-width:1px;"/><path d="M71.957,81.739l-35.479,35.826" style="fill:none;stroke:#c2a201;stroke-width:1px;"/><path d="M54.217,81.739l0,17.913" style="fill:none;stroke:#c2a201;stroke-width:1px;"/><path d="M77.174,0l0,256" style="fill:none;stroke:#c2a201;stroke-width:1px;"/><path d="M1,1.739l76.174,0" style="fill:none;stroke:#c2a201;stroke-width:1px;"/><path d="M1,63.652l76.174,0" style="fill:none;stroke:#c2a201;stroke-width:1px;"/><path d="M77.174,33.043l-30.609,30.609" style="fill:none;stroke:#c2a201;stroke-width:1px;"/></svg>