<?xml version="1.0" encoding="UTF-8" standalone="no"?><!DOCTYPE svg PUBLIC "-//W3C//DTD SVG 1.1//EN" "http://www.w3.org/Graphics/SVG/1.1/DTD/svg11.dtd"><svg width="100%" height="100%" viewBox="0 0 1400 600" version="1.1" xmlns="http://www.w3.org/2000/svg" xmlns:xlink="http://www.w3.org/1999/xlink" xml:space="preserve" style="fill-rule:evenodd;clip-rule:evenodd;stroke-linecap:round;stroke-linejoin:round;stroke-miterlimit:1.5;"><rect x="0" y="0" width="1400" height="600" style="fill:#24282b;"/><g><g><g><path d="M865.7,249.297l91.011,0l-257.206,369.234l166.195,-369.234Z" style="fill:#24282b;stroke:#d4af37;stroke-width:6px;"/><path d="M699.505,249.297l166.195,0l-166.195,369.234l0,-369.234Z" style="fill:#24282b;stroke:#d4af37;stroke-width:6px;"/><path d="M956.711,249.297l122.667,0l-379.873,369.234l257.206,-369.234Z" style="fill:#24282b;stroke:#d4af37;stroke-width:6px;"/><path d="M1079.38,249.297l156.302,0l-536.175,369.234l379.873,-369.234Z" style="fill:#24282b;stroke:#d4af37;stroke-width:6px;"/><path d="M1235.68,249.297l171.141,0l0,32.208l-707.316,337.026l536.175,-369.234Z" style="fill:#24282b;stroke:#d4af37;stroke-width:6px;"/><path d="M1406.82,279.492l0,116.754l-707.316,222.285l707.316,-339.039Z" style="fill:#24282b;stroke:#d4af37;stroke-width:6px;"/><path d="M1406.82,396.246l0,101.505l-707.316,120.78l707.316,-222.285Z" style="fill:#24282b;stroke:#d4af37;stroke-width:6px;"/><path d="M1406.82,498.909l0,119.622l-707.316,0l707.316,-119.622Z" style="fill:#24282b;stroke:#d4af37;stroke-width:6px;"/></g><g><path d="M700.495,249.297l-166.195,0l166.195,369.234l0,-369.234Z" style="fill:#24282b;stroke:#d4af37;stroke-width:6px;"/><path d="M534.3,249.297l-91.011,0l257.206,369.234l-166.195,-369.234Z" style="fill:#24282b;stroke:#d4af37;stroke-width:6px;"/><path d="M443.289,249.297l-122.667,0l379.873,369.234l-257.206,-369.234Z" style="fill:#24282b;stroke:#d4af37;stroke-width:6px;"/><path d="M320.622,249.297l-156.302,0l536.175,369.234l-379.873,-369.234Z" style="fill:#24282b;stroke:#d4af37;stroke-width:6px;"/><path d="M164.32,249.297l-171.141,0l0,32.208l707.316,337.026l-536.175,-369.234Z" style="fill:#24282b;stroke:#d4af37;stroke-width:6px;"/><path d="M-6.821,279.492l0,116.754l707.316,222.285l-707.316,-339.039Z" style="fill:#24282b;stroke:#d4af37;stroke-width:6px;"/><path d="M-6.821,396.246l0,101.505l707.316,120.78l-707.316,-222.285Z" style="fill:#24282b;stroke:#d4af37;stroke-width:6px;"/><path d="M-6.821,498.909l0,119.622l707.316,0l-707.316,-119.622Z" style="fill:#24282b;stroke:#d4af37;stroke-width:6px;"/></g></g><path d="M1104.11,618.046c0,-170.624 -118.684,-320.773 -291.316,-368.548l-226.578,0c-172.631,47.775 -291.315,197.924 -291.315,368.548l809.209,0Z" style="fill:#24282b;stroke:#d4af37;stroke-width:6px;"/></g><clipPath id="_clip1"><polygon id="side" points="818.866,0 818.866,249.498 0,249.498 0,0 818.866,0 "/></clipPath><g clip-path="url(#_clip1)"><g id="corner"><path d="M0,127.81c0,0 117.498,-0.671 133.51,116.82" style="fill:none;stroke:#c3a300;stroke-width:3.2px;"/><path d="M2.226,244.63l1.11,-116.823" style="fill:none;stroke:#c2a201;stroke-width:3.2px;"/><path d="M2.226,244.63l131.284,0" style="fill:none;stroke:#c2a201;stroke-width:3.2px;"/><path d="M2.546,244.982l88.889,-81.033" style="fill:none;stroke:#c2a201;stroke-width:3.2px;"/><path d="M2.226,244.63l52.766,-105.922" style="fill:none;stroke:#c2a201;stroke-width:3.2px;"/><path d="M2.226,244.63l119.52,-40.163" style="fill:none;stroke:#c2a201;stroke-width:3.2px;"/><path d="M2.226,244.63l26.556,-113.371" style="fill:none;stroke:#c2a201;stroke-width:3.2px;"/><path d="M2.226,244.63l73.043,-94.298" style="fill:none;stroke:#c2a201;stroke-width:3.2px;"/><path d="M2.226,244.63l107.009,-63.433" style="fill:none;stroke:#c2a201;stroke-width:3.2px;"/><path d="M2.277,244.956l126.288,-19.921" style="fill:none;stroke:#c2a201;stroke-width:3.2px;"/></g><path d="M818.866,14.324l-818.866,0" style="fill:none;stroke:#c2a201;stroke-width:3.2px;"/><path d="M818.866,3.199l-818.866,0" style="fill:none;stroke:#c2a201;stroke-width:6.4px;"/><path d="M0,5.425l236.982,238.092" style="fill:none;stroke:#c2a201;stroke-width:3.2px;"/><path d="M202.49,14.324l-100.001,94.07" style="fill:none;stroke:#c2a201;stroke-width:3.2px;"/><path d="M222.517,14.324l-110.012,105.198" style="fill:none;stroke:#c2a201;stroke-width:3.2px;"/><path d="M243.658,14.324l-120.028,112.987" style="fill:none;stroke:#c2a201;stroke-width:3.2px;"/><path d="M267.804,14.324l-135.605,124.112" style="fill:none;stroke:#c2a201;stroke-width:3.2px;"/><path d="M286.718,14.324l-144.504,134.124" style="fill:none;stroke:#c2a201;stroke-width:3.2px;"/><path d="M307.855,14.324l-154.516,145.249" style="fill:none;stroke:#c2a201;stroke-width:3.2px;"/><path d="M328.996,14.324l-165.645,154.151" style="fill:none;stroke:#c2a201;stroke-width:3.2px;"/><path d="M297.54,48.172l201.082,198.527" style="fill:none;stroke:#c2a201;stroke-width:3.2px;"/><path d="M375.421,150.531l95.389,96.168" style="fill:none;stroke:#c2a201;stroke-width:3.2px;"/><path d="M375.421,179.456l69.243,67.243" style="fill:none;stroke:#c2a201;stroke-width:3.2px;"/><path d="M375.421,206.159l43.096,40.54" style="fill:none;stroke:#c2a201;stroke-width:3.2px;"/><path d="M375.421,124.941l0.272,121.758" style="fill:none;stroke:#c2a201;stroke-width:3.2px;"/><path d="M557.408,4.312l-154.651,146.862" style="fill:none;stroke:#c2a201;stroke-width:3.2px;"/><path d="M557.408,4.312l0,242.387" style="fill:none;stroke:#c2a201;stroke-width:3.2px;"/><path d="M557.408,56.604l-54.519,0" style="fill:none;stroke:#c2a201;stroke-width:3.2px;"/><path d="M557.408,117.795l-117.936,-1.113" style="fill:none;stroke:#c2a201;stroke-width:3.2px;"/><path d="M557.408,230.169l-114.596,-113.487" style="fill:none;stroke:#c2a201;stroke-width:3.2px;"/><path d="M557.408,173.424l-57.298,0" style="fill:none;stroke:#c2a201;stroke-width:3.2px;"/><path d="M818.866,246.856l-818.866,0" style="fill:none;stroke:#c2a201;stroke-width:3.2px;"/><path d="M813.304,3.199l0,243.657" style="fill:none;stroke:#c2a201;stroke-width:3.2px;"/><path d="M615.263,3.199l0,243.657" style="fill:none;stroke:#c2a201;stroke-width:3.2px;"/><path d="M713.172,246.856l-97.909,-97.909" style="fill:none;stroke:#c2a201;stroke-width:3.2px;"/></g><clipPath id="_clip2"><polygon id="side1" points="581.134,-0.201 581.134,249.297 1400,249.297 1400,-0.201 581.134,-0.201 "/></clipPath><g clip-path="url(#_clip2)"><g id="corner1"><path d="M1400,127.609c0,0 -117.498,-0.672 -133.51,116.82" style="fill:none;stroke:#c3a300;stroke-width:3.2px;"/><path d="M1397.77,244.429l-1.11,-116.823" style="fill:none;stroke:#c2a201;stroke-width:3.2px;"/><path d="M1397.77,244.429l-131.284,0" style="fill:none;stroke:#c2a201;stroke-width:3.2px;"/><path d="M1397.45,244.78l-88.889,-81.032" style="fill:none;stroke:#c2a201;stroke-width:3.2px;"/><path d="M1397.77,244.429l-52.766,-105.922" style="fill:none;stroke:#c2a201;stroke-width:3.2px;"/><path d="M1397.77,244.429l-119.52,-40.163" style="fill:none;stroke:#c2a201;stroke-width:3.2px;"/><path d="M1397.77,244.429l-26.556,-113.372" style="fill:none;stroke:#c2a201;stroke-width:3.2px;"/><path d="M1397.77,244.429l-73.043,-94.298" style="fill:none;stroke:#c2a201;stroke-width:3.2px;"/><path d="M1397.77,244.429l-107.009,-63.434" style="fill:none;stroke:#c2a201;stroke-width:3.2px;"/><path d="M1397.72,244.755l-126.288,-19.922" style="fill:none;stroke:#c2a201;stroke-width:3.2px;"/></g><path d="M581.134,14.122l818.866,0" style="fill:none;stroke:#c2a201;stroke-width:3.2px;"/><path d="M581.134,2.997l818.866,0" style="fill:none;stroke:#c2a201;stroke-width:6.4px;"/><path d="M1400,5.224l-236.982,238.091" style="fill:none;stroke:#c2a201;stroke-width:3.2px;"/><path d="M1197.51,14.122l100.001,94.071" style="fill:none;stroke:#c2a201;stroke-width:3.2px;"/><path d="M1177.48,14.122l110.012,105.199" style="fill:none;stroke:#c2a201;stroke-width:3.2px;"/><path d="M1156.34,14.122l120.028,112.988" style="fill:none;stroke:#c2a201;stroke-width:3.2px;"/><path d="M1132.2,14.122l135.605,124.113" style="fill:none;stroke:#c2a201;stroke-width:3.2px;"/><path d="M1113.28,14.122l144.504,134.125" style="fill:none;stroke:#c2a201;stroke-width:3.2px;"/><path d="M1092.14,14.122l154.516,145.25" style="fill:none;stroke:#c2a201;stroke-width:3.2px;"/><path d="M1071,14.122l165.645,154.152" style="fill:none;stroke:#c2a201;stroke-width:3.2px;"/><path d="M1102.46,47.971l-201.082,198.527" style="fill:none;stroke:#c2a201;stroke-width:3.2px;"/><path d="M1024.58,150.329l-95.389,96.169" style="fill:none;stroke:#c2a201;stroke-width:3.2px;"/><path d="M1024.58,179.255l-69.243,67.243" style="fill:none;stroke:#c2a201;stroke-width:3.2px;"/><path d="M1024.58,205.958l-43.096,40.54" style="fill:none;stroke:#c2a201;stroke-width:3.2px;"/><path d="M1024.58,124.74l-0.272,121.758" style="fill:none;stroke:#c2a201;stroke-width:3.2px;"/><path d="M842.592,4.111l154.651,146.861" style="fill:none;stroke:#c2a201;stroke-width:3.2px;"/><path d="M842.592,4.111l0,242.387" style="fill:none;stroke:#c2a201;stroke-width:3.2px;"/><path d="M842.592,56.403l54.519,0" style="fill:none;stroke:#c2a201;stroke-width:3.2px;"/><path d="M842.592,117.594l117.936,-1.113" style="fill:none;stroke:#c2a201;stroke-width:3.2px;"/><path d="M842.592,229.967l114.596,-113.486" style="fill:none;stroke:#c2a201;stroke-width:3.2px;"/><path d="M842.592,173.222l57.298,0" style="fill:none;stroke:#c2a201;stroke-width:3.2px;"/><path d="M581.134,246.655l818.866,0" style="fill:none;stroke:#c2a201;stroke-width:3.2px;"/><path d="M586.696,2.997l0,243.658" style="fill:none;stroke:#c2a201;stroke-width:3.2px;"/><path d="M784.737,2.997l0,243.658" style="fill:none;stroke:#c2a201;stroke-width:3.2px;"/><path d="M686.828,246.655l97.909,-97.909" style="fill:none;stroke:#c2a201;stroke-width:3.2px;"/></g></svg>