<?xml version="1.0" encoding="UTF-8" standalone="no"?><!DOCTYPE svg PUBLIC "-//W3C//DTD SVG 1.1//EN" "http://www.w3.org/Graphics/SVG/1.1/DTD/svg11.dtd"><svg width="100%" height="100%" viewBox="0 0 288 261" version="1.1" xmlns="http://www.w3.org/2000/svg" xmlns:xlink="http://www.w3.org/1999/xlink" xml:space="preserve" style="fill-rule:evenodd;clip-rule:evenodd;stroke-linecap:square;stroke-linejoin:round;stroke-miterlimit:1.5;"><g><rect x="144.106" y="2" width="29.542" height="259" style="fill:#39260d;"/><rect x="144.106" y="0" width="29.542" height="46" style="fill:#826732;"/><rect x="144.106" y="13" width="6.06" height="30" style="fill:#39260d;"/><rect x="154.332" y="46" width="42.798" height="212" style="fill:#39260d;"/><rect x="181.981" y="77" width="40.526" height="181" style="fill:#39260d;"/><rect x="193.343" y="101" width="45.071" height="157" style="fill:#39260d;"/><path d="M267.281,167l-44.314,0l0.676,91l44.313,0l-0.675,-91Z" style="fill:#39260d;"/><path d="M282.735,208l-44.313,0l0.371,50l44.313,0l-0.371,-50Z" style="fill:#39260d;"/><path d="M143.379,174l6,0l0,81l78.839,0l0,-41l6,0l0,41l20.437,0l0,6l-111.276,0l0,-87Z" style="fill:#826732;"/><rect x="206.221" y="214" width="27.27" height="28" style="fill:#826732;"/><path d="M164.917,147.521l0.32,0.057l0.312,0.09l0.3,0.124l0.285,0.155l0.267,0.186l0.245,0.213l0.221,0.238l0.194,0.261l0.164,0.28l0.133,0.296l0.1,0.309l0.066,0.318l0.032,0.324l3.664,85.628l32.712,0l-0.711,-46.955l0.013,-0.324l0.047,-0.321l0.083,-0.315l0.115,-0.303l0.148,-0.29l0.178,-0.271l0.207,-0.251l0.232,-0.227l0.256,-0.2l0.275,-0.172l0.293,-0.141l0.306,-0.108l0.317,-0.075l0.322,-0.04l0.325,-0.005l0.323,0.031l0.318,0.065l0.31,0.099l0.297,0.131l0.28,0.164l0.262,0.192l0.239,0.22l0.214,0.245l0.187,0.266l0.156,0.284l0.125,0.3l0.091,0.312l0.058,0.319l0.022,0.325l0.804,53.045l-44.552,0l-3.911,-91.372l0.004,-0.325l0.039,-0.322l0.073,-0.316l0.107,-0.307l0.14,-0.293l0.171,-0.277l0.199,-0.256l0.226,-0.233l0.25,-0.208l0.271,-0.179l0.289,-0.149l0.303,-0.117l0.314,-0.083l0.321,-0.049l0.325,-0.014l0.324,0.021Z" style="fill:#826732;"/><path d="M225.507,98l13.841,0l3.788,64l27.387,0l0.757,41l15.119,0l1.69,58l-39.32,0l-2.275,-68.066l-43.094,-0.999l-1.689,-26.752l-3.62,-61.183l-34.26,0l0,-30l30.983,0l-0.611,-25l-44.824,0l0,74l36.21,0l6.093,118.842l-5.992,0.308l-5.802,-113.15l-36.509,0l0,-86l56.679,0l0.758,31l24.691,0l0,24Zm-55.676,0l33.915,0l3.954,66.817l1.341,21.248l43.26,1.001l2.271,67.934l27.339,0l-1.34,-46l-15.181,0l-0.757,-41l-27.153,0l-3.787,-64l-14.186,0l0,-24l-49.676,0l0,18Z" style="fill:#826732;"/><path d="M164.559,150.5l-18.18,0" style="fill:none;stroke:#826732;stroke-width:6px;"/></g><g><rect x="114.564" y="2" width="29.542" height="259" style="fill:#39260d;"/><rect x="114.564" y="0" width="30.542" height="46" style="fill:#826732;"/><rect x="138.046" y="13" width="9.06" height="30" style="fill:#39260d;"/><rect x="91.082" y="46" width="42.798" height="212" style="fill:#39260d;"/><rect x="65.706" y="77" width="40.526" height="181" style="fill:#39260d;"/><rect x="49.798" y="101" width="45.071" height="157" style="fill:#39260d;"/><path d="M20.932,167l44.313,0l-0.676,91l-44.313,0l0.676,-91Z" style="fill:#39260d;"/><path d="M5.478,208l44.313,0l-0.371,50l-44.314,0l0.372,-50Z" style="fill:#39260d;"/><path d="M33.557,255l20.438,0l0,-41l6,0l0,41l78.839,0l0,-81l6,0l0,87l-111.277,0l0,-6Z" style="fill:#826732;"/><rect x="54.722" y="214" width="27.27" height="28" style="fill:#826732;"/><path d="M123.944,147.514l0.321,0.049l0.314,0.083l0.304,0.117l0.288,0.149l0.271,0.179l0.25,0.208l0.226,0.233l0.2,0.256l0.17,0.277l0.14,0.293l0.107,0.307l0.074,0.316l0.039,0.322l0.003,0.325l-3.91,91.372l-44.552,0l0.803,-53.045l0.023,-0.325l0.057,-0.319l0.092,-0.312l0.124,-0.3l0.157,-0.284l0.186,-0.266l0.214,-0.245l0.24,-0.22l0.261,-0.192l0.281,-0.164l0.297,-0.131l0.309,-0.099l0.318,-0.065l0.324,-0.031l0.325,0.005l0.322,0.04l0.316,0.075l0.306,0.108l0.293,0.141l0.276,0.172l0.255,0.2l0.233,0.227l0.206,0.251l0.179,0.271l0.147,0.29l0.116,0.303l0.082,0.315l0.048,0.321l0.012,0.324l-0.711,46.955l32.712,0l3.665,-85.628l0.031,-0.324l0.066,-0.318l0.101,-0.309l0.133,-0.296l0.164,-0.28l0.193,-0.261l0.221,-0.238l0.245,-0.213l0.267,-0.186l0.285,-0.155l0.301,-0.124l0.312,-0.09l0.32,-0.057l0.324,-0.021l0.324,0.014Z" style="fill:#826732;"/><path d="M90.122,104l-3.621,61.183l-1.689,26.752l-43.094,0.999l-2.274,68.066l-39.32,0l1.69,-58l15.118,0l0.758,-41l27.387,0l3.787,-64l13.842,0l0,-24l24.691,0l0.757,-31l21.865,0l34.815,0l0,86l-36.51,0l-5.802,113.15l-5.992,-0.308l6.094,-118.842l36.21,0l0,-74l-44.825,0l-0.611,25l30.983,0l0,30l-34.259,0Zm-21.416,-24l0,24l-14.186,0l-3.788,64l-27.152,0l-0.758,41l-15.181,0l-1.34,46l27.34,0l2.27,-67.934l43.26,-1.001l1.341,-21.248l3.955,-66.817l33.914,0l0,-18l-49.675,0Z" style="fill:#826732;"/><path d="M123.654,150.5l18.18,0" style="fill:none;stroke:#826732;stroke-width:6px;"/></g><rect x="138.046" y="154" width="11.954" height="20" style="fill:#39260d;"/><rect x="138.129" y="129" width="11.954" height="18" style="fill:#39260d;"/></svg>